<?xml version="1.0" standalone="no"?>
<!DOCTYPE svg PUBLIC "-//W3C//DTD SVG 20010904//EN"
 "http://www.w3.org/TR/2001/REC-SVG-20010904/DTD/svg10.dtd">
<svg version="1.0" xmlns="http://www.w3.org/2000/svg"
 width="477.000000pt" height="477.000000pt" viewBox="0 0 477.000000 477.000000"
 preserveAspectRatio="xMidYMid meet">
<metadata>
Created by potrace 1.15, written by Peter Selinger 2001-2017
</metadata>
<g transform="translate(0.000000,477.000000) scale(0.100000,-0.100000)"
fill="#000000" stroke="none">
<path d="M1889 3788 c-656 -715 -634 -687 -627 -838 4 -77 9 -98 41 -162 36
-73 91 -148 107 -148 5 0 273 288 596 640 322 352 592 640 598 640 7 0 54 -25
104 -55 225 -132 410 -303 478 -440 38 -77 39 -82 39 -184 -1 -231 -50 -301
-720 -1031 -472 -514 -485 -531 -485 -645 0 -100 60 -201 160 -270 l41 -28 28
29 c63 65 913 996 990 1084 396 449 495 787 336 1146 -130 294 -542 645 -987
841 -54 24 -105 43 -113 43 -8 0 -271 -280 -586 -622z"/>
<path d="M2183 2992 c-271 -296 -533 -587 -583 -647 -172 -206 -279 -390 -321
-552 -26 -101 -28 -271 -4 -369 22 -88 92 -238 149 -318 139 -194 421 -429
700 -581 121 -66 308 -147 316 -138 4 4 263 287 574 627 312 340 578 638 592
661 34 59 48 141 35 213 -13 70 -68 184 -115 237 l-35 40 -34 -35 c-19 -19
-287 -310 -595 -647 l-560 -611 -63 35 c-155 86 -307 201 -412 312 -209 222
-209 444 0 727 85 113 131 166 591 668 306 333 418 462 437 502 45 96 30 208
-41 302 -25 33 -120 112 -132 112 -4 -1 -228 -243 -499 -538z"/>
</g>
</svg>
